<svg width="153" height="46" viewBox="0 0 153 46" fill="none" xmlns="http://www.w3.org/2000/svg">
<g filter="url(#filter0_d_0_5)">
<ellipse cx="23" cy="22" rx="20" ry="20" fill="white"/>
</g>
<path d="M33.3226 17.2542C33.3236 18.226 33.107 19.1856 32.6886 20.0626C32.2701 20.9395 31.6606 21.7115 30.9048 22.3218L13.5209 12.4501C13.4544 12.4122 13.3927 12.3664 13.3371 12.3138C13.2499 12.2283 13.1807 12.1263 13.1333 12.0137C13.086 11.9011 13.0616 11.7802 13.0615 11.6581C13.0615 11.4143 13.1583 11.1805 13.3306 11.0082C13.5029 10.8358 13.7366 10.7389 13.9802 10.7389H26.8103C28.5374 10.7389 30.1939 11.4254 31.4152 12.6472C32.6365 13.8691 33.3226 15.5263 33.3226 17.2542Z" fill="#18B4F4"/>
<path d="M33.3226 27.3894C33.3228 28.2451 33.1545 29.0925 32.8273 29.8832C32.5001 30.6738 32.0204 31.3923 31.4157 31.9974C30.811 32.6026 30.093 33.0826 29.3028 33.4101C28.5126 33.7377 27.6656 33.9062 26.8103 33.9062H13.9802C13.7985 33.9043 13.6214 33.8484 13.4714 33.7458C13.3214 33.6431 13.2052 33.4982 13.1375 33.3295C13.0698 33.1608 13.0536 32.9757 13.0911 32.7978C13.1285 32.6198 13.2179 32.457 13.3478 32.3299C13.3996 32.2779 13.4578 32.2326 13.5208 32.1951L20.3623 28.3101L30.9032 22.3233C31.659 22.9335 32.2686 23.7052 32.6873 24.5818C33.1059 25.4585 33.323 26.4178 33.3226 27.3894Z" fill="#FD6B3C"/>
<path d="M30.9048 22.3218L20.3623 28.3101L13.5209 32.1951C13.4552 32.2316 13.3944 32.2764 13.3402 32.3284C15.9488 29.6517 17.4073 26.0603 17.404 22.3218C17.4089 18.583 15.9508 14.9906 13.3417 12.3138C13.3973 12.3664 13.459 12.4122 13.5254 12.4501L30.9048 22.3218Z" fill="#A97FF2"/>
<path d="M64.853 15.1902C65.467 15.3019 65.9718 15.6012 66.3672 16.0883C66.7627 16.5753 66.9604 17.1334 66.9604 17.7625C66.9604 18.3308 66.8147 18.8331 66.5233 19.2694C66.2423 19.6956 65.8313 20.0304 65.2901 20.274C64.7489 20.5175 64.1089 20.6393 63.37 20.6393H58.6713V10.0152H63.1671C63.906 10.0152 64.5408 10.1319 65.0715 10.3653C65.6127 10.5987 66.0186 10.9234 66.2892 11.3394C66.5702 11.7554 66.7106 12.2273 66.7106 12.7549C66.7106 13.3739 66.5389 13.8914 66.1955 14.3074C65.8625 14.7235 65.415 15.0177 64.853 15.1902ZM60.8567 14.3988H62.8549C63.3752 14.3988 63.7759 14.2872 64.0569 14.0639C64.3379 13.8305 64.4783 13.5008 64.4783 13.0746C64.4783 12.6484 64.3379 12.3186 64.0569 12.0852C63.7759 11.8518 63.3752 11.7352 62.8549 11.7352H60.8567V14.3988ZM63.0578 18.9041C63.5886 18.9041 63.9996 18.7823 64.291 18.5388C64.5928 18.2953 64.7437 17.9503 64.7437 17.5038C64.7437 17.0472 64.5876 16.692 64.2754 16.4383C63.9632 16.1745 63.5417 16.0426 63.011 16.0426H60.8567V18.9041H63.0578Z" fill="#303030"/>
<path d="M73.8224 10.0152V16.5906C73.8224 17.311 74.015 17.864 74.4 18.2496C74.7851 18.6251 75.3262 18.8128 76.0235 18.8128C76.7312 18.8128 77.2776 18.6251 77.6626 18.2496C78.0477 17.864 78.2402 17.311 78.2402 16.5906V10.0152H80.4413V16.5753C80.4413 17.4784 80.2383 18.2445 79.8325 18.8737C79.437 19.4926 78.901 19.9594 78.2246 20.274C77.5585 20.5885 76.8144 20.7458 75.9923 20.7458C75.1805 20.7458 74.4417 20.5885 73.7756 20.274C73.12 19.9594 72.5996 19.4926 72.2146 18.8737C71.8295 18.2445 71.637 17.4784 71.637 16.5753V10.0152H73.8224Z" fill="#303030"/>
<path d="M87.7043 10.0152V20.6393H85.5188V10.0152H87.7043Z" fill="#303030"/>
<path d="M95.015 18.9498H98.6054V20.6393H92.8295V10.0152H95.015V18.9498Z" fill="#303030"/>
<path d="M106.769 10.0152C107.914 10.0152 108.918 10.2334 109.782 10.6697C110.656 11.106 111.328 11.7301 111.796 12.5418C112.275 13.3435 112.514 14.277 112.514 15.3425C112.514 16.4079 112.275 17.3414 111.796 18.1431C111.328 18.9345 110.656 19.5484 109.782 19.9848C108.918 20.4211 107.914 20.6393 106.769 20.6393H102.96V10.0152H106.769ZM106.691 18.828C107.836 18.828 108.721 18.5236 109.345 17.9148C109.97 17.3059 110.282 16.4485 110.282 15.3425C110.282 14.2364 109.97 13.3739 109.345 12.7549C108.721 12.1258 107.836 11.8113 106.691 11.8113H105.146V18.828H106.691Z" fill="#303030"/>
<path d="M119.301 11.7352V14.3988H122.97V16.0883H119.301V18.9041H123.438V20.6393H117.116V9.99999H123.438V11.7352H119.301Z" fill="#303030"/>
<path d="M134.01 20.6393L131.606 16.4992H130.576V20.6393H128.39V10.0152H132.48C133.323 10.0152 134.041 10.1623 134.635 10.4566C135.228 10.7407 135.67 11.1314 135.961 11.6286C136.263 12.1157 136.414 12.6636 136.414 13.2724C136.414 13.9726 136.206 14.6068 135.79 15.175C135.373 15.7331 134.754 16.1187 133.932 16.3318L136.539 20.6393H134.01ZM130.576 14.9011H132.402C132.995 14.9011 133.438 14.7641 133.729 14.4901C134.021 14.206 134.166 13.8153 134.166 13.3181C134.166 12.831 134.021 12.4556 133.729 12.1918C133.438 11.9178 132.995 11.7808 132.402 11.7808H130.576V14.9011Z" fill="#303030"/>
<path d="M65.3525 32.8843H61.0128L60.2947 34.9087H58L61.9182 24.2694H64.4627L68.381 34.9087H66.0706L65.3525 32.8843ZM64.7593 31.1796L63.1827 26.7351L61.606 31.1796H64.7593Z" fill="#303030"/>
<path d="M72.2808 29.5814C72.2808 28.5363 72.5201 27.6027 72.9989 26.7808C73.488 25.9487 74.1488 25.3044 74.9814 24.8478C75.8244 24.381 76.7662 24.1476 77.8069 24.1476C79.0245 24.1476 80.0912 24.452 81.007 25.0609C81.9229 25.6697 82.5629 26.5119 82.9271 27.5875H80.4138C80.1641 27.0802 79.8102 26.6996 79.3523 26.446C78.9048 26.1923 78.3845 26.0654 77.7913 26.0654C77.1565 26.0654 76.5893 26.2126 76.0897 26.5068C75.6006 26.791 75.2156 27.1968 74.9346 27.7245C74.664 28.2521 74.5287 28.8711 74.5287 29.5814C74.5287 30.2816 74.664 30.9005 74.9346 31.4383C75.2156 31.966 75.6006 32.377 76.0897 32.6712C76.5893 32.9553 77.1565 33.0974 77.7913 33.0974C78.3845 33.0974 78.9048 32.9706 79.3523 32.7169C79.8102 32.4531 80.1641 32.0675 80.4138 31.5601H82.9271C82.5629 32.6459 81.9229 33.4931 81.007 34.102C80.1016 34.7006 79.0349 35 77.8069 35C76.7662 35 75.8244 34.7717 74.9814 34.3151C74.1488 33.8483 73.488 33.2039 72.9989 32.382C72.5201 31.5601 72.2808 30.6266 72.2808 29.5814Z" fill="#303030"/>
<path d="M94.4411 32.8843H90.1014L89.3833 34.9087H87.0885L91.0068 24.2694H93.5513L97.4695 34.9087H95.1592L94.4411 32.8843ZM93.8479 31.1796L92.2712 26.7351L90.6946 31.1796H93.8479Z" fill="#303030"/>
<path d="M105.709 24.2846C106.854 24.2846 107.858 24.5028 108.722 24.9391C109.596 25.3754 110.267 25.9995 110.736 26.8113C111.214 27.6129 111.454 28.5464 111.454 29.6119C111.454 30.6773 111.214 31.6108 110.736 32.4125C110.267 33.2039 109.596 33.8178 108.722 34.2542C107.858 34.6905 106.854 34.9087 105.709 34.9087H101.9V24.2846H105.709ZM105.631 33.0974C106.776 33.0974 107.66 32.793 108.285 32.1842C108.909 31.5753 109.221 30.7179 109.221 29.6119C109.221 28.5058 108.909 27.6433 108.285 27.0243C107.66 26.3952 106.776 26.0807 105.631 26.0807H104.086V33.0974H105.631Z" fill="#303030"/>
<path d="M118.241 26.0046V28.6682H121.91V30.3577H118.241V33.1735H122.378V34.9087H116.056V24.2694H122.378V26.0046H118.241Z" fill="#303030"/>
<path d="M139.209 24.2846V34.9087H137.024V27.9985L134.105 34.9087H132.45L129.515 27.9985V34.9087H127.33V24.2846H129.812L133.277 32.1842L136.743 24.2846H139.209Z" fill="#303030"/>
<path d="M153 24.2846L149.316 31.21V34.9087H147.13V31.21L143.431 24.2846H145.897L148.239 29.14L150.565 24.2846H153Z" fill="#303030"/>
<defs>
<filter id="filter0_d_0_5" x="0" y="-9.53674e-06" width="46" height="46" filterUnits="userSpaceOnUse" color-interpolation-filters="sRGB">
<feFlood flood-opacity="0" result="BackgroundImageFix"/>
<feColorMatrix in="SourceAlpha" type="matrix" values="0 0 0 0 0 0 0 0 0 0 0 0 0 0 0 0 0 0 127 0" result="hardAlpha"/>
<feOffset dy="1"/>
<feGaussianBlur stdDeviation="1.5"/>
<feComposite in2="hardAlpha" operator="out"/>
<feColorMatrix type="matrix" values="0 0 0 0 0 0 0 0 0 0 0 0 0 0 0 0 0 0 0.25 0"/>
<feBlend mode="normal" in2="BackgroundImageFix" result="effect1_dropShadow_0_5"/>
<feBlend mode="normal" in="SourceGraphic" in2="effect1_dropShadow_0_5" result="shape"/>
</filter>
</defs>
</svg>
